# xmcd
#
# Track frame offsets:
# 150
# 17282
# 35523
# 53733
# 73194
# 86669
# 103228
# 125436
# 145068
# 160842
#
# Disc length: 2346 seconds
#
#
# Revision: 0
# Processed by: cddbd v1.5.2PL0 Copyright (c) Steve Scherf et al.
# Submitted via: Nero 7, 11, 10, 0 
#
DISCID=8109280a
DTITLE=Carla Thomas - Live In Memphis
DYEAR=2001
DGENRE=Blues
TTITLE0=Lovey Dovey
TTITLE1=B-A-B-Y
TTITLE2=When Something Is Wrong With My Baby
TTITLE3=634-5789
TTITLE4=Little Red Rooster
TTITLE5=These Arms of Mine
TTITLE6=Let Me Be Good To You
TTITLE7=Lean On Me
TTITLE8=Gee Whiz
TTITLE9=I’ll Take You There
EXTD=
EXTT0=Lovey Dovey
EXTT1=B-A-B-Y
EXTT2=When Something Is Wrong With My Baby
EXTT3=634-5789
EXTT4=Little Red Rooster
EXTT5=These Arms of Mine
EXTT6=Let Me Be Good To You
EXTT7=Lean On Me
EXTT8=Gee Whiz
EXTT9=I’ll Take You There
PLAYORDER=
